<svg width="23" height="20" viewBox="0 0 23 20" fill="none" xmlns="http://www.w3.org/2000/svg">
<path fill-rule="evenodd" clip-rule="evenodd" d="M20.5293 0.191406H2.28104C1.42606 0.191406 0.677028 0.702174 0.286609 1.45298C0.414328 1.48863 0.538395 1.54882 0.652862 1.63467L11.404 9.69803L22.1552 1.63467C22.2702 1.54836 22.395 1.48799 22.5235 1.45241C22.133 0.701914 21.3841 0.191406 20.5293 0.191406ZM22.8104 4.1265L12.0581 12.1907C11.6653 12.4853 11.1427 12.4853 10.75 12.1907L0 4.12827V17.2992C0 18.6434 1.02647 19.7432 2.28104 19.7432H20.5293C21.7839 19.7432 22.8104 18.6434 22.8104 17.2992V4.1265Z" fill="white"/>
</svg>
