<svg width="23" height="25" viewBox="0 0 23 25" fill="none" xmlns="http://www.w3.org/2000/svg">
<path fill-rule="evenodd" clip-rule="evenodd" d="M2.28104 0.09375H20.5293C21.7891 0.09375 22.8104 1.24554 22.8104 2.66635V15.5293C22.8104 16.9502 21.7891 18.1019 20.5293 18.1019H12.5475C12.5475 18.102 12.5475 18.102 12.5475 18.102V21.9611H17.108C17.7379 21.9611 18.2486 22.537 18.2486 23.2474C18.2486 23.9578 17.7379 24.5337 17.108 24.5337H5.70285C5.07296 24.5337 4.56233 23.9578 4.56233 23.2474C4.56233 22.537 5.07296 21.9611 5.70285 21.9611H10.2665V18.102C10.2665 18.102 10.2665 18.102 10.2665 18.1019H2.28104C1.02126 18.1019 0 16.9502 0 15.5293V2.66635C0 1.24554 1.02126 0.09375 2.28104 0.09375Z" fill="white"/>
</svg>
