<svg width="21" height="21" viewBox="0 0 21 21" fill="none" xmlns="http://www.w3.org/2000/svg">
<path d="M19.0567 0.125H2.1932C1.78661 0.125 1.39668 0.286517 1.10917 0.574019C0.821673 0.861521 0.660156 1.25146 0.660156 1.65805V18.5216C0.660156 18.9281 0.821673 19.3181 1.10917 19.6056C1.39668 19.8931 1.78661 20.0546 2.1932 20.0546H19.0567C19.4633 20.0546 19.8532 19.8931 20.1407 19.6056C20.4282 19.3181 20.5898 18.9281 20.5898 18.5216V1.65805C20.5898 1.25146 20.4282 0.861521 20.1407 0.574019C19.8532 0.286517 19.4633 0.125 19.0567 0.125ZM7.55886 14.6889C7.55886 14.8922 7.4781 15.0872 7.33435 15.231C7.1906 15.3747 6.99564 15.4555 6.79234 15.4555C6.58905 15.4555 6.39408 15.3747 6.25033 15.231C6.10658 15.0872 6.02582 14.8922 6.02582 14.6889V8.55675C6.02582 8.35346 6.10658 8.15849 6.25033 8.01474C6.39408 7.87099 6.58905 7.79023 6.79234 7.79023C6.99564 7.79023 7.1906 7.87099 7.33435 8.01474C7.4781 8.15849 7.55886 8.35346 7.55886 8.55675V14.6889ZM6.79234 7.02371C6.56493 7.02371 6.34264 6.95627 6.15355 6.82993C5.96447 6.70359 5.8171 6.52402 5.73008 6.31393C5.64305 6.10383 5.62028 5.87265 5.66465 5.64961C5.70901 5.42657 5.81852 5.2217 5.97932 5.0609C6.14012 4.9001 6.34499 4.7906 6.56803 4.74623C6.79106 4.70187 7.02225 4.72464 7.23234 4.81166C7.44244 4.89868 7.62201 5.04606 7.74835 5.23514C7.87469 5.42422 7.94212 5.64652 7.94212 5.87392C7.94212 6.17886 7.82099 6.47132 7.60536 6.68694C7.38973 6.90257 7.09728 7.02371 6.79234 7.02371ZM15.9906 14.6889C15.9906 14.8922 15.9099 15.0872 15.7661 15.231C15.6224 15.3747 15.4274 15.4555 15.2241 15.4555C15.0208 15.4555 14.8258 15.3747 14.6821 15.231C14.5383 15.0872 14.4576 14.8922 14.4576 14.6889V11.2396C14.4576 10.7313 14.2557 10.2439 13.8963 9.88455C13.5369 9.52517 13.0495 9.32328 12.5413 9.32328C12.033 9.32328 11.5456 9.52517 11.1862 9.88455C10.8269 10.2439 10.625 10.7313 10.625 11.2396V14.6889C10.625 14.8922 10.5442 15.0872 10.4004 15.231C10.2567 15.3747 10.0617 15.4555 9.85843 15.4555C9.65514 15.4555 9.46017 15.3747 9.31642 15.231C9.17267 15.0872 9.09191 14.8922 9.09191 14.6889V8.55675C9.09286 8.369 9.16269 8.18812 9.28815 8.04844C9.41361 7.90875 9.58598 7.81997 9.77256 7.79894C9.95913 7.7779 10.1469 7.82608 10.3004 7.93433C10.4538 8.04258 10.5621 8.20337 10.6048 8.3862C11.1234 8.03444 11.7279 7.83057 12.3536 7.79648C12.9793 7.76239 13.6024 7.89937 14.1561 8.19271C14.7098 8.48606 15.1731 8.92468 15.4963 9.46148C15.8195 9.99828 15.9904 10.613 15.9906 11.2396V14.6889Z" fill="white"/>
</svg>
