<svg width="23" height="25" viewBox="0 0 23 25" fill="none" xmlns="http://www.w3.org/2000/svg">
<path d="M22.8097 18.3642V22.0434C22.811 22.3849 22.7455 22.723 22.6176 23.0359C22.4896 23.3489 22.3019 23.6298 22.0666 23.8607C21.8312 24.0916 21.5533 24.2674 21.2507 24.3768C20.9482 24.4862 20.6276 24.5269 20.3094 24.4961C16.7802 24.0861 13.3902 22.7965 10.4117 20.7311C7.64058 18.8482 5.29117 16.336 3.53029 13.3728C1.59201 10.1734 0.385771 6.5308 0.00930905 2.74005C-0.0193514 2.40091 0.0183408 2.05911 0.119985 1.7364C0.22163 1.4137 0.385 1.11716 0.599694 0.865664C0.814388 0.614172 1.0757 0.413236 1.367 0.275651C1.65829 0.138066 1.97319 0.0668458 2.29164 0.0665252H5.73234C6.28894 0.0606674 6.82854 0.271428 7.25056 0.659523C7.67258 1.04762 7.94824 1.58657 8.02614 2.17591C8.17136 3.35332 8.44068 4.50939 8.82897 5.62206C8.98327 6.06101 9.01667 6.53806 8.9252 6.99669C8.83373 7.45531 8.62122 7.87629 8.31286 8.20973L6.8563 9.76724C8.48898 12.8376 10.8664 15.3797 13.7377 17.1256L15.1943 15.5681C15.5061 15.2383 15.8998 15.0111 16.3287 14.9133C16.7576 14.8155 17.2037 14.8512 17.6142 15.0162C18.6548 15.4314 19.7359 15.7194 20.837 15.8746C21.3941 15.9587 21.9029 16.2588 22.2667 16.7178C22.6304 17.1768 22.8236 17.7628 22.8097 18.3642Z" fill="white"/>
</svg>
